# Blender v2.82 (sub 7) OBJ File: ''
# www.blender.org
mtllib Cube.mtl
o Cube
v -1.000000 -1.000000 1.000000
v -1.000000 1.000000 1.000000
v -1.000000 -1.000000 -1.000000
v -1.000000 1.000000 -1.000000
v 1.000000 -1.000000 1.000000
v 1.000000 1.000000 1.000000
v 1.000000 -1.000000 -1.000000
v 1.000000 1.000000 -1.000000
vt 0.000091 0.333364
vt 0.208343 0.333364
vt 0.208343 0.666636
vt 0.000091 0.666636
vt 0.833097 0.666636
vt 0.833097 0.999909
vt 0.624846 0.999909
vt 0.624846 0.666636
vt 0.416594 0.666636
vt 0.416594 0.333364
vt 0.624846 0.333364
vt 0.624846 0.000091
vt 0.833097 0.000091
vt 0.833097 0.333364
vn -1.0000 0.0000 0.0000
vn 0.0000 0.0000 -1.0000
vn 1.0000 0.0000 0.0000
vn 0.0000 0.0000 1.0000
vn 0.0000 -1.0000 0.0000
vn 0.0000 1.0000 0.0000
usemtl Material.001
s off
f 1/1/1 2/2/1 4/3/1 3/4/1
f 3/5/2 4/6/2 8/7/2 7/8/2
f 7/8/3 8/9/3 6/10/3 5/11/3
f 5/11/4 6/12/4 2/13/4 1/14/4
f 3/5/5 7/8/5 5/11/5 1/14/5
f 8/9/6 4/3/6 2/2/6 6/10/6
