# Blender v2.82 (sub 7) OBJ File: ''
# www.blender.org
mtllib RasterPlaneV2.mtl
o Plane_Plane.001
v -1.000000 0.000000 1.000000
v 1.000000 0.000000 1.000000
v -1.000000 0.000000 -1.000000
v 1.000000 0.000000 -1.000000
v 0.000000 0.000000 1.000000
v 0.000000 0.000000 -1.000000
v -0.508676 0.000000 -1.000000
v -0.508676 0.000000 1.000000
v 0.500000 0.000000 1.000000
v 0.500000 0.000000 -1.000000
v -1.000000 0.000000 0.000000
v 1.000000 0.000000 0.000000
v 0.000000 0.000000 0.000000
v -0.508676 0.000000 0.000000
v 0.500000 0.000000 0.000000
v 1.000000 0.000000 -0.500000
v 0.000000 0.000000 -0.500000
v -0.508676 0.000000 -0.500000
v 0.500000 0.000000 -0.500000
v -1.000000 0.000000 -0.500000
v -1.000000 0.000000 0.500000
v 1.000000 0.000000 0.500000
v 0.000000 0.000000 0.500000
v -0.508676 0.000000 0.500000
v 0.500000 0.000000 0.500000
v -0.754338 0.000000 -0.750000
v -0.254338 0.000000 -0.750000
v 0.250000 0.000000 -0.750000
v 0.750000 0.000000 -0.750000
v 0.750000 0.000000 -0.250000
v 0.250000 0.000000 -0.250000
v -0.254338 0.000000 -0.250000
v -0.754338 0.000000 -0.250000
v -0.754338 0.000000 0.250000
v -0.254338 0.000000 0.250000
v 0.250000 0.000000 0.250000
v 0.750000 0.000000 0.250000
v 0.750000 0.000000 0.750000
v 0.250000 0.000000 0.750000
v -0.254338 0.000000 0.750000
v -0.754338 0.000000 0.750000
vt 1.000000 0.750000
vt 1.000000 1.000000
vt 0.875000 0.875000
vt 0.500000 0.750000
vt 0.500000 1.000000
vt 0.372831 0.875000
vt 0.245662 1.000000
vt 0.000000 1.000000
vt 0.122831 0.875000
vt 0.750000 0.750000
vt 0.750000 1.000000
vt 0.625000 0.875000
vt 0.750000 0.250000
vt 0.750000 0.500000
vt 0.625000 0.375000
vt 0.245662 0.500000
vt 0.000000 0.500000
vt 0.122831 0.375000
vt 0.500000 0.250000
vt 0.500000 0.500000
vt 0.372831 0.375000
vt 1.000000 0.250000
vt 1.000000 0.500000
vt 0.875000 0.375000
vt 0.625000 0.625000
vt 0.245662 0.750000
vt 0.000000 0.750000
vt 0.122831 0.625000
vt 0.372831 0.625000
vt 0.875000 0.625000
vt 0.875000 0.125000
vt 0.245662 0.250000
vt 0.372831 0.125000
vt 0.245662 0.000000
vt 0.122831 0.125000
vt 0.750000 0.000000
vt 0.625000 0.125000
vt 0.000000 0.250000
vt 1.000000 0.000000
vt 0.500000 0.000000
vt 0.000000 0.000000
vn 0.0000 1.0000 0.0000
usemtl None
s off
f 16/1/1 4/2/1 29/3/1
f 17/4/1 6/5/1 27/6/1
f 7/7/1 3/8/1 26/9/1
f 19/10/1 10/11/1 28/12/1
f 25/13/1 15/14/1 36/15/1
f 14/16/1 11/17/1 34/18/1
f 23/19/1 13/20/1 35/21/1
f 22/22/1 12/23/1 37/24/1
f 19/10/1 17/4/1 31/25/1
f 18/26/1 20/27/1 33/28/1
f 17/4/1 18/26/1 32/29/1
f 16/1/1 19/10/1 30/30/1
f 22/22/1 25/13/1 38/31/1
f 23/19/1 24/32/1 40/33/1
f 8/34/1 24/32/1 41/35/1
f 9/36/1 25/13/1 39/37/1
f 20/27/1 18/26/1 26/9/1
f 3/8/1 20/27/1 26/9/1
f 18/26/1 7/7/1 26/9/1
f 7/7/1 18/26/1 27/6/1
f 18/26/1 17/4/1 27/6/1
f 6/5/1 7/7/1 27/6/1
f 6/5/1 17/4/1 28/12/1
f 17/4/1 19/10/1 28/12/1
f 10/11/1 6/5/1 28/12/1
f 10/11/1 19/10/1 29/3/1
f 19/10/1 16/1/1 29/3/1
f 4/2/1 10/11/1 29/3/1
f 15/14/1 12/23/1 30/30/1
f 12/23/1 16/1/1 30/30/1
f 19/10/1 15/14/1 30/30/1
f 13/20/1 15/14/1 31/25/1
f 15/14/1 19/10/1 31/25/1
f 17/4/1 13/20/1 31/25/1
f 14/16/1 13/20/1 32/29/1
f 13/20/1 17/4/1 32/29/1
f 18/26/1 14/16/1 32/29/1
f 11/17/1 14/16/1 33/28/1
f 14/16/1 18/26/1 33/28/1
f 20/27/1 11/17/1 33/28/1
f 21/38/1 24/32/1 34/18/1
f 11/17/1 21/38/1 34/18/1
f 24/32/1 14/16/1 34/18/1
f 14/16/1 24/32/1 35/21/1
f 24/32/1 23/19/1 35/21/1
f 13/20/1 14/16/1 35/21/1
f 13/20/1 23/19/1 36/15/1
f 23/19/1 25/13/1 36/15/1
f 15/14/1 13/20/1 36/15/1
f 15/14/1 25/13/1 37/24/1
f 25/13/1 22/22/1 37/24/1
f 12/23/1 15/14/1 37/24/1
f 9/36/1 2/39/1 38/31/1
f 2/39/1 22/22/1 38/31/1
f 25/13/1 9/36/1 38/31/1
f 23/19/1 5/40/1 39/37/1
f 25/13/1 23/19/1 39/37/1
f 5/40/1 9/36/1 39/37/1
f 8/34/1 5/40/1 40/33/1
f 5/40/1 23/19/1 40/33/1
f 24/32/1 8/34/1 40/33/1
f 21/38/1 1/41/1 41/35/1
f 24/32/1 21/38/1 41/35/1
f 1/41/1 8/34/1 41/35/1
