# Blender v2.82 (sub 7) OBJ File: ''
# www.blender.org
mtllib Tree.mtl
o Cylinder
v 1.204920 -5.483142 -1.408927
v 0.555570 5.456974 -0.831470
v 1.836812 -5.466151 -0.778699
v 0.980785 5.456974 -0.195090
v 1.930183 -5.400270 0.629022
v 0.831470 5.456974 0.555570
v 0.082259 -5.235824 1.830377
v 0.195090 5.456974 0.980785
v -0.802303 -5.379965 1.728293
v -0.414884 5.609368 0.493355
v -1.420074 -5.527209 0.389806
v -1.106384 5.409293 0.136295
v -0.976034 -5.454192 -1.028680
v -0.831469 5.456974 -0.555571
v -0.045377 -5.421741 -1.622593
v -0.123743 5.465413 -0.562217
v 0.555570 3.897839 -0.831470
v 0.555570 2.338703 -0.831470
v 0.555570 0.779568 -0.831470
v 0.555570 -0.779568 -0.831470
v 0.555570 -2.338703 -0.831470
v 1.013532 -3.895224 -1.042214
v 0.980785 3.897839 -0.195090
v 0.980785 2.338703 -0.195090
v 0.668453 0.777300 -0.317767
v 0.668453 -0.781836 -0.317767
v 0.980785 -2.338703 -0.195090
v 1.365496 -3.798554 -0.255683
v 0.901309 3.899182 0.742225
v 0.954266 2.340056 0.714368
v 0.726161 0.778803 0.514207
v 0.519138 -0.781836 0.432894
v 0.831470 -2.338703 0.555570
v 1.140022 -3.837223 0.654441
v 0.196031 3.927048 1.097470
v 0.210985 2.310410 1.127000
v -0.117242 0.777300 0.858109
v 0.195090 -0.779568 0.980785
v 0.195090 -2.338703 0.980785
v 0.195090 -3.897839 0.980785
v -0.555571 3.897839 0.831469
v -0.555571 2.338703 0.831469
v -0.555571 0.779568 0.831469
v -0.555571 -0.779568 0.831469
v -0.555571 -2.338703 0.831469
v -0.555571 -3.897839 0.831469
v -0.980785 3.897839 0.195089
v -0.980785 2.338703 0.195089
v -0.980785 0.779568 0.195089
v -0.980785 -0.779568 0.195089
v -0.980785 -2.338703 0.195089
v -0.980785 -3.897839 0.195089
v -0.600274 3.872087 -0.384977
v -0.534860 2.395093 -0.504689
v -0.831469 0.779568 -0.555571
v -0.831469 -0.779568 -0.555571
v -0.831469 -2.338703 -0.555571
v -0.831469 -3.897839 -0.555571
v -0.182109 3.995654 -0.669930
v -0.231207 2.311964 -0.730784
v -0.195089 0.779568 -0.980786
v -0.195089 -0.779568 -0.980786
v -0.195089 -2.338703 -0.980786
v -0.195089 -3.897839 -0.980786
v 0.549407 5.456974 -0.832696
v 0.000000 5.456974 -0.000001
v 1.356433 7.291643 -0.986384
v 0.962998 7.291643 -1.462992
v 1.175337 7.291643 -0.395495
v 0.375648 7.291643 -0.791295
v 2.786035 8.425512 -0.832767
v 2.603387 8.498363 -1.333938
v 2.473227 8.641296 -0.451415
v 1.940236 8.918242 -1.037313
v 5.608437 9.666883 0.165868
v 5.524109 9.695300 -0.379182
v 5.600794 10.099411 0.509175
v 5.441988 10.501104 -0.199249
v 2.839487 9.334111 -0.825456
v 2.441062 12.283841 -2.758967
v 2.104185 12.339625 -2.420481
v 2.343316 12.327283 -2.055267
v 2.696984 12.219625 -1.988257
v 2.160625 10.694771 -1.730656
v 2.493114 10.476126 -1.990063
v 2.587789 10.892318 -1.630020
v 2.396330 10.582407 -1.333839
v -3.683337 8.926154 -0.994394
v -3.832654 8.926154 -0.243733
v -3.046957 8.926154 -1.419608
v -2.851868 8.926154 -0.438823
v -0.187761 8.781539 1.866489
v 0.562900 8.781539 2.015805
v 0.367810 8.781539 1.035019
v 0.026045 9.980754 3.996176
v 0.776706 9.980754 4.145492
v 0.581616 9.980754 3.164705
v -3.683337 10.721101 -0.994394
v -3.832654 10.721101 -0.243733
v -3.046957 10.721101 -1.419608
v -2.851868 10.721101 -0.438823
v 0.445692 9.218374 1.810795
v 3.169749 9.214423 2.357654
v 3.074694 9.214423 1.879779
v 3.112641 9.427266 2.257765
v 4.380477 9.277122 3.211977
v 4.285422 9.277122 2.734102
v 4.323370 9.489965 3.112088
v -7.109640 13.858088 -3.283780
v -6.745142 15.419946 5.010578
v 4.934671 14.884380 -7.592535
v 6.407227 15.033657 6.110057
v -7.109640 16.893234 -3.283780
v -5.888639 17.012413 4.578019
v 4.934671 17.919527 -7.592535
v 7.157573 17.919527 4.500022
v -4.895887 18.206017 -1.804595
v -5.594462 18.206017 1.707358
v -1.918595 18.206017 -3.793952
v -1.005874 18.206017 0.794631
v -1.720832 11.301420 -3.623232
v -0.816961 11.301420 0.920859
v -5.301349 11.228513 0.116944
v -5.019975 11.301420 -1.887508
v 4.581391 13.606046 -6.849149
v -6.531973 13.713733 4.438437
v 6.579608 13.606046 3.196624
v -6.730001 12.579754 -3.030113
v 0.323609 11.509591 2.840003
v -5.874988 11.940586 -2.458810
v -0.864659 11.894344 -4.793703
v -6.218499 11.780254 1.440054
v 0.598765 12.579754 4.506890
v 0.320533 11.317141 4.258781
v 1.177208 11.448559 4.109064
v 0.456014 11.106370 3.104027
v -3.780099 10.721101 -0.507941
v -2.920533 10.721101 -0.784028
v -6.873434 14.870222 2.091234
v 5.888935 14.981117 1.287191
v -6.318392 16.970465 1.810922
v 6.375184 17.919527 0.243836
v -5.348587 18.206017 0.471265
v -1.327122 18.206017 -0.820400
v -1.135094 11.301420 -0.678513
v -5.202314 11.254175 -0.588558
v 5.876301 13.606046 -0.339160
v -6.601673 13.314609 1.809751
v -6.097594 11.836686 0.067781
v -0.094622 11.645011 0.153187
v -2.982017 10.721101 -1.093127
v 5.424851 14.934072 -3.031259
v 5.674624 17.919527 -3.567202
v -1.614771 18.206017 -2.266518
v -5.113638 11.277151 -1.220272
v -6.664083 12.957229 -0.544005
v -5.989335 11.887215 -1.160969
v -3.733041 10.721101 -0.744516
v -6.988307 14.377995 -0.522780
v -6.703197 16.932905 -0.666768
v -5.128427 18.206017 -0.635547
v -1.419955 11.301420 -2.110609
v 5.246551 13.606046 -3.505143
v -0.469112 11.766270 -2.252618
v -3.832654 10.287322 -0.243733
v -3.683337 10.287322 -0.994394
v -3.046957 10.287322 -1.419608
v -2.851868 10.287322 -0.438823
v -3.832654 10.505296 -0.243733
v -2.851868 10.505296 -0.438823
v -2.920533 10.597013 -0.784028
v -3.780099 10.607738 -0.507941
v -3.733041 10.607738 -0.744516
v -2.982017 10.597013 -1.093127
v -3.683337 10.505296 -0.994394
v -3.046957 10.505296 -1.419608
vt 0.279757 0.646403
vt 0.311111 0.641315
vt 0.304527 0.666964
vt 0.272376 0.659786
vt 0.757446 0.733397
vt 0.731107 0.734031
vt 0.738069 0.722407
vt 0.757446 0.722432
vt 0.698656 0.733512
vt 0.707712 0.722120
vt 0.467436 0.709394
vt 0.463694 0.676944
vt 0.477065 0.669085
vt 0.477065 0.704100
vt 0.263003 0.714007
vt 0.262397 0.685581
vt 0.272922 0.685441
vt 0.273153 0.702149
vt 0.397878 0.774317
vt 0.378824 0.772368
vt 0.378824 0.761429
vt 0.397878 0.763378
vt 0.151100 0.727537
vt 0.152919 0.715451
vt 0.164614 0.713594
vt 0.162252 0.738831
vt 0.131191 0.572553
vt 0.162878 0.536711
vt 0.195008 0.529519
vt 0.240336 0.555957
vt 0.240336 0.640670
vt 0.219476 0.667072
vt 0.165786 0.659002
vt 0.130873 0.614995
vt 0.757446 0.755325
vt 0.731107 0.755959
vt 0.731107 0.744995
vt 0.757446 0.744361
vt 0.174999 0.713595
vt 0.173887 0.685052
vt 0.184273 0.685053
vt 0.185385 0.713596
vt 0.153116 0.685050
vt 0.163502 0.685051
vt 0.195770 0.700506
vt 0.213930 0.667072
vt 0.213930 0.715233
vt 0.195770 0.748666
vt 0.240672 0.623993
vt 0.257392 0.606180
vt 0.369457 0.699039
vt 0.354188 0.716649
vt 0.349880 0.653632
vt 0.367182 0.643898
vt 0.172637 0.738832
vt 0.183023 0.738834
vt 0.195770 0.713597
vt 0.193408 0.738835
vt 0.130873 0.711639
vt 0.132354 0.685282
vt 0.132345 0.685047
vt 0.142731 0.685049
vt 0.141325 0.713679
vt 0.140563 0.730273
vt 0.131095 0.738828
vt 0.349880 0.773686
vt 0.350654 0.761314
vt 0.378824 0.750489
vt 0.350654 0.750374
vt 0.350654 0.739434
vt 0.378824 0.739549
vt 0.350654 0.728495
vt 0.378824 0.728609
vt 0.257750 0.576782
vt 0.240336 0.581577
vt 0.378824 0.783308
vt 0.354736 0.783928
vt 0.397878 0.752438
vt 0.397878 0.741498
vt 0.397878 0.730558
vt 0.377819 0.793444
vt 0.350654 0.794133
vt 0.397878 0.785257
vt 0.240336 0.692339
vt 0.241299 0.666964
vt 0.251572 0.671453
vt 0.251872 0.685721
vt 0.283832 0.713584
vt 0.283447 0.685301
vt 0.293972 0.685161
vt 0.294357 0.713444
vt 0.304497 0.685020
vt 0.304882 0.713304
vt 0.306133 0.556653
vt 0.277940 0.556268
vt 0.275242 0.537576
vt 0.328978 0.529519
vt 0.252078 0.713673
vt 0.241733 0.714145
vt 0.283923 0.727739
vt 0.294602 0.739174
vt 0.304882 0.750546
vt 0.273501 0.735552
vt 0.325814 0.577713
vt 0.349880 0.555922
vt 0.252555 0.741818
vt 0.263101 0.743795
vt 0.241978 0.739876
vt 0.295003 0.621021
vt 0.315192 0.600507
vt 0.325354 0.607557
vt 0.305164 0.628071
vt 0.334700 0.615000
vt 0.712327 0.710719
vt 0.738069 0.711443
vt 0.349880 0.640541
vt 0.698088 0.744342
vt 0.705365 0.755234
vt 0.757446 0.711468
vt 0.731107 0.701138
vt 0.757446 0.700504
vt 0.276971 0.627686
vt 0.195770 0.667072
vt 0.451778 0.705224
vt 0.452259 0.669085
vt 0.463694 0.702658
vt 0.463694 0.733137
vt 0.117417 0.559409
vt 0.094249 0.529519
vt 0.130873 0.533580
vt 0.611564 0.735609
vt 0.579931 0.762922
vt 0.587919 0.734173
vt 0.756458 0.770118
vt 0.736714 0.769404
vt 0.552175 0.826875
vt 0.522158 0.849126
vt 0.043490 0.571857
vt 0.066151 0.547048
vt 0.062082 0.608136
vt 0.053509 0.634451
vt 0.400701 0.708790
vt 0.379781 0.728495
vt 0.083352 0.576276
vt 0.368836 0.537330
vt 0.388250 0.531097
vt 0.072795 0.641906
vt 0.104285 0.739584
vt 0.098112 0.743173
vt 0.085410 0.626437
vt 0.391949 0.702651
vt 0.382693 0.653700
vt 0.736202 0.134829
vt 0.506597 0.111190
vt 0.706828 0.084673
vt 0.731740 0.124373
vt 0.728797 0.070650
vt 0.738594 0.080327
vt 0.052430 0.626988
vt 0.042154 0.635412
vt 0.029136 0.641128
vt 0.025471 0.627850
vt 0.400701 0.529519
vt 0.498992 0.557466
vt 0.501337 0.529519
vt 0.504234 0.542282
vt 0.504234 0.563435
vt 0.332159 0.706114
vt 0.343265 0.694815
vt 0.348319 0.721295
vt 0.337394 0.735670
vt 0.130873 0.743113
vt 0.451778 0.669085
vt 0.451778 0.729621
vt 0.448385 0.721435
vt 0.443368 0.677340
vt 0.037065 0.619370
vt 0.011271 0.619970
vt 0.224203 0.710857
vt 0.215910 0.699090
vt 0.215522 0.667072
vt 0.227711 0.695426
vt 0.227711 0.744725
vt 0.213930 0.728137
vt 0.325251 0.681076
vt 0.348319 0.666964
vt 0.347789 0.761174
vt 0.347789 0.735816
vt 0.349220 0.735670
vt 0.349220 0.761028
vt 0.326013 0.754767
vt 0.326702 0.765110
vt 0.325251 0.765116
vt 0.325251 0.754770
vt 0.450786 0.529519
vt 0.454829 0.556398
vt 0.453373 0.667602
vt 0.434467 0.645776
vt 0.238898 0.752219
vt 0.235327 0.760587
vt 0.235327 0.708438
vt 0.238898 0.670189
vt 0.557824 0.691562
vt 0.594113 0.697997
vt 0.759270 0.672228
vt 0.739204 0.650695
vt 0.730553 0.610308
vt 0.757309 0.619585
vt 0.575453 0.675334
vt 0.732514 0.528396
vt 0.759270 0.537673
vt 0.989491 0.186407
vt 0.991174 0.085487
vt 1.000000 0.064304
vt 1.000000 0.176441
vt 0.544865 0.370666
vt 0.563959 0.500137
vt 0.549803 0.528396
vt 0.539112 0.352505
vt 0.435924 0.729627
vt 0.435924 0.767824
vt 0.434467 0.767825
vt 0.434467 0.729628
vt 0.464530 0.735051
vt 0.465148 0.747842
vt 0.463694 0.747845
vt 0.463694 0.735053
vt 0.630986 0.589017
vt 0.629697 0.584784
vt 0.637473 0.528396
vt 0.638761 0.532629
vt 0.572809 0.666646
vt 0.506597 0.629348
vt 0.542887 0.635782
vt 0.640078 0.600059
vt 0.730553 0.682117
vt 0.698225 0.700504
vt 0.698088 0.591555
vt 0.713840 0.582596
vt 0.504234 0.533753
vt 0.505587 0.529519
vt 0.505587 0.548243
vt 0.647853 0.543671
vt 0.714801 0.537355
vt 0.730553 0.528396
vt 0.368540 0.035751
vt 0.452827 0.529519
vt 0.263978 0.246834
vt 0.266343 0.067093
vt 0.378741 0.000000
vt 0.506597 0.489292
vt 0.986392 0.372216
vt 1.000000 0.382904
vt 0.517684 0.000000
vt 0.698088 0.528396
vt 0.698088 0.999279
vt 0.677883 1.000000
vt 0.677883 0.529117
vt 0.657002 0.703615
vt 0.657430 0.528450
vt 0.677883 0.528396
vt 0.677883 0.685602
vt 0.272244 0.015301
vt 0.265456 0.038723
vt 0.184606 0.100980
vt 0.149039 0.245089
vt 0.091687 0.244218
vt 0.143822 0.117888
vt 0.000000 0.529519
vt 0.075661 0.044194
vt 0.150736 0.529519
vt 0.223219 0.084971
vt 0.884179 0.259956
vt 0.847767 0.265804
vt 0.775082 0.210351
vt 0.938833 0.248694
vt 0.853367 0.303777
vt 0.877474 0.288520
vt 0.925250 0.325181
vt 0.801029 0.386287
vt 0.851503 0.291137
vt 0.792392 0.327722
vt 0.881819 0.270010
vt 0.934052 0.275615
vt 0.974739 0.199578
vt 0.767653 0.429929
vt 0.955821 0.348699
vt 0.757184 0.331697
vt 0.968081 0.252063
vt 0.441189 0.721533
vt 0.434467 0.686077
vt 0.461265 0.733137
vt 0.461265 0.766448
vt 0.452583 0.777158
vt 0.451778 0.748884
vt 0.227711 0.711039
vt 0.228357 0.667072
vt 0.000000 0.634024
vt 0.784215 0.272275
vt 0.747272 0.238694
vt 0.929772 0.299721
vt 0.962118 0.299060
vt 0.987983 0.276771
vt 0.526787 0.248087
vt 0.879706 0.279012
vt 0.849738 0.279169
vt 0.173153 0.041384
vt 0.293447 0.529519
vt 0.203337 0.245913
vt 0.176885 0.029001
vt 0.434467 0.529519
vt 0.434467 0.715871
vt 0.412607 0.754464
vt 0.400701 0.588664
vt 0.465148 0.709412
vt 0.464530 0.722940
vt 0.463694 0.722941
vt 0.463694 0.709415
vt 0.481518 0.667523
vt 0.493348 0.529519
vt 0.498992 0.591447
vt 0.498992 0.777850
vt 1.000000 0.276849
vt 0.326013 0.745502
vt 0.325251 0.745505
vt 0.623477 0.753914
vt 0.647853 0.742044
vt 0.647730 0.742249
vt 0.481518 0.562982
vt 0.481518 0.669085
vt 0.573479 0.858226
vt 0.326702 0.735714
vt 0.325251 0.735720
vt 0.325251 0.666964
vt 0.325251 0.769161
vt 0.306830 0.762356
vt 0.304882 0.668281
vt 0.656597 0.869454
vt 0.677883 0.834439
vt 0.647958 0.808406
vt 0.647853 0.684353
vt 0.475790 0.709394
vt 0.475790 0.747824
vt 0.466617 0.747840
vt 0.466617 0.709410
vt 0.337320 0.765067
vt 0.328168 0.765105
vt 0.328167 0.735708
vt 0.337320 0.735670
vt 0.446585 0.729621
vt 0.446585 0.767817
vt 0.437395 0.767823
vt 0.437395 0.729626
vt 0.337320 0.762240
vt 0.337320 0.736882
vt 0.346344 0.735963
vt 0.346344 0.761321
vn 0.7693 0.3094 -0.5590
vn 0.9032 -0.0738 -0.4228
vn 0.9855 -0.1688 -0.0174
vn 0.4242 -0.2098 0.8810
vn -0.2592 -0.0563 0.9642
vn -0.8315 0.0000 0.5556
vn -0.5576 0.1246 -0.8207
vn 0.0244 -0.9986 0.0461
vn 0.8315 0.0000 -0.5556
vn 0.1951 0.0000 -0.9808
vn 0.0301 0.0809 -0.9963
vn 0.9797 -0.0477 -0.1949
vn 0.0661 0.3142 -0.9471
vn 0.5798 -0.7128 -0.3947
vn -0.5556 0.0000 -0.8315
vn -0.2880 0.0385 -0.9569
vn -0.5789 0.0435 -0.8142
vn -0.2469 -0.0339 -0.9685
vn -0.9224 0.0922 -0.3750
vn -0.9808 0.0000 -0.1951
vn -0.5262 0.2886 -0.7999
vn -0.8401 0.0033 -0.5424
vn -0.8798 -0.1351 -0.4557
vn -0.6711 0.0937 0.7355
vn -0.1951 0.0000 0.9808
vn -0.1463 0.0243 0.9889
vn -0.8436 0.3336 0.4207
vn -0.3469 0.0071 0.9379
vn -0.4693 0.1425 0.8715
vn 0.7084 0.0985 0.6989
vn 0.4259 0.0721 0.9019
vn 0.6068 0.0310 0.7943
vn -0.1743 0.5344 0.8271
vn 0.4683 0.0105 0.8835
vn 0.5020 0.0959 0.8595
vn 0.9594 0.2075 0.1908
vn 0.9493 0.2253 0.2195
vn 0.9960 -0.0676 0.0577
vn 0.4609 0.3404 0.8195
vn 0.9982 0.0164 0.0573
vn 0.9905 0.0302 0.1342
vn 0.9033 0.0739 -0.4225
vn 0.8355 0.2761 -0.4751
vn 0.9767 0.0000 -0.2146
vn 0.9332 0.3561 0.0490
vn 0.0446 0.0739 -0.9963
vn -0.1685 0.0210 -0.9855
vn -0.7944 -0.0647 -0.6040
vn 0.0000 1.0000 -0.0000
vn -0.0842 0.9299 -0.3580
vn 0.9681 -0.0766 0.2384
vn 0.1474 0.2305 0.9618
vn -0.4391 0.4650 -0.7687
vn 0.7475 -0.3727 -0.5498
vn -0.4490 0.4536 0.7698
vn 0.4391 -0.8766 -0.1969
vn 0.1024 0.3765 -0.9207
vn -0.4431 0.5016 0.7430
vn 0.5926 -0.6685 0.4494
vn 0.3656 -0.8849 -0.2885
vn 0.2382 -0.2115 0.9479
vn 0.2660 0.3153 0.9110
vn 0.0999 -0.7192 0.6876
vn 0.9806 0.1323 -0.1448
vn -0.7010 -0.2962 -0.6488
vn -0.4662 0.6652 0.5832
vn -0.9961 0.0873 0.0097
vn -0.8168 0.1991 0.5415
vn 0.9585 -0.1118 -0.2624
vn 0.9488 -0.0327 -0.3142
vn -0.6874 0.3058 0.6588
vn -0.5917 -0.2573 -0.7640
vn 0.2475 0.4395 0.8635
vn -0.2787 -0.3959 -0.8750
vn 0.9667 0.1691 -0.1923
vn -0.7567 0.2870 -0.5873
vn -0.4325 -0.2783 0.8576
vn -0.5497 0.7503 -0.3673
vn -0.0986 -0.8628 0.4958
vn -0.9846 -0.1629 0.0630
vn 0.9672 -0.2118 -0.1400
vn 0.1951 0.0000 0.9808
vn 0.9808 0.0000 -0.1951
vn -0.5701 0.2187 0.7919
vn -0.1817 0.3774 0.9080
vn 0.0142 0.8707 -0.4917
vn 0.1680 -0.9852 -0.0334
vn 0.3038 0.8168 -0.4904
vn 0.0601 -0.9981 -0.0120
vn -0.0351 0.9652 0.2592
vn -0.0437 0.4275 0.9029
vn -0.2800 -0.3513 -0.8934
vn -0.0812 -0.3739 0.9239
vn -0.3368 0.0000 -0.9416
vn 0.9885 -0.0536 -0.1413
vn -0.9293 0.3655 0.0532
vn -0.2591 0.8373 -0.4815
vn 0.0379 0.9993 -0.0071
vn -0.8610 0.5074 0.0342
vn -0.0496 -0.8367 0.5454
vn -0.1889 -0.9197 -0.3441
vn 0.3118 -0.9481 -0.0620
vn -0.3443 -0.9356 -0.0786
vn -0.1430 -0.8327 0.5349
vn -0.3068 -0.3772 -0.8738
vn 0.2830 -0.9564 -0.0718
vn -0.9697 -0.2442 0.0085
vn -0.6005 -0.7939 -0.0949
vn 0.4448 -0.8895 -0.1045
vn -0.2763 -0.7845 -0.5551
vn -0.0638 -0.9706 0.2319
vn -0.9374 0.0919 -0.3359
vn 0.0070 -0.0821 0.9966
vn 0.9095 -0.1114 -0.4005
vn 0.2444 -0.8650 0.4383
vn 0.2191 0.9752 -0.0298
vn 0.3488 -0.9329 -0.0894
vn -0.5818 -0.8079 -0.0935
vn -0.8978 -0.4396 0.0262
vn 0.3133 -0.9465 -0.0771
vn -0.3474 -0.9344 -0.0790
vn -0.6955 0.7182 0.0244
vn 0.0382 0.9992 -0.0072
vn -0.9799 0.1839 0.0770
vn 0.9549 -0.2644 -0.1353
vn 0.9492 0.2817 -0.1405
vn -0.9768 -0.2027 0.0695
vn 0.0168 0.9998 0.0111
vn -0.7448 -0.6228 -0.2396
vn 0.7730 0.6149 -0.1564
vn -0.9476 0.1957 -0.2526
vn -0.9664 -0.2454 0.0765
vn -0.9943 0.0531 0.0921
vn -0.5684 0.8226 0.0175
vn -0.3503 -0.9333 -0.0795
vn -0.7437 -0.6669 0.0476
vn -0.5647 -0.8201 -0.0922
vn 0.4033 -0.9098 -0.0980
vn 0.2983 -0.9515 -0.0745
vn 0.0381 0.9992 -0.0072
vn 0.9775 -0.1585 -0.1391
vn 0.9886 0.0426 -0.1447
usemtl Material.001
s off
f 22/1/1 28/2/1 3/3/1 1/4/1
f 18/5/2 24/6/2 25/7/2 19/8/2
f 24/6/3 30/9/3 31/10/3 25/7/3
f 30/11/4 36/12/4 37/13/4 31/14/4
f 36/15/5 42/16/5 43/17/5 37/18/5
f 42/19/6 48/20/6 49/21/6 43/22/6
f 54/23/7 60/24/7 61/25/7 55/26/7
f 15/27/8 1/28/8 3/29/8 5/30/8 7/31/8 9/32/8 11/33/8 13/34/8
f 2/35/9 4/36/9 23/37/9 17/38/9
f 62/39/10 20/40/10 21/41/10 63/42/10
f 60/24/11 18/43/11 19/44/11 61/25/11
f 8/45/12 66/46/12 94/47/12 93/48/12
f 15/49/13 64/50/13 22/1/13 1/4/13
f 67/51/14 68/52/14 72/53/14 71/54/14
f 56/55/15 62/39/15 63/42/15 57/56/15
f 57/56/15 63/42/15 64/57/15 58/58/15
f 55/26/15 61/25/15 62/39/15 56/55/15
f 16/59/16 65/60/16 2/61/16 17/62/16 59/63/16
f 53/64/17 59/63/17 60/24/17 54/23/17
f 14/65/18 16/59/18 59/63/18 53/64/18
f 48/20/19 54/66/19 55/67/19 49/21/19
f 50/68/20 56/69/20 57/70/20 51/71/20
f 51/71/20 57/70/20 58/72/20 52/73/20
f 58/74/21 64/50/21 15/49/21 13/75/21
f 49/21/20 55/67/20 56/69/20 50/68/20
f 47/76/22 53/77/22 54/66/22 48/20/22
f 44/78/6 50/68/6 51/71/6 45/79/6
f 45/79/6 51/71/6 52/73/6 46/80/6
f 43/22/6 49/21/6 50/68/6 44/78/6
f 12/81/23 14/82/23 53/77/23 47/76/23
f 41/83/6 47/76/6 48/20/6 42/19/6
f 10/84/24 12/85/24 47/86/24 41/87/24
f 38/88/25 44/89/25 45/90/25 39/91/25
f 39/91/25 45/90/25 46/92/25 40/93/25
f 37/18/26 43/17/26 44/89/26 38/88/26
f 46/94/27 52/95/27 11/96/27 9/97/27
f 35/98/28 41/87/28 42/16/28 36/15/28
f 8/99/29 10/84/29 41/87/29 35/98/29
f 32/100/30 38/88/30 39/91/30 33/101/30
f 33/101/31 39/91/31 40/93/31 34/102/31
f 31/103/32 37/18/32 38/88/32 32/100/32
f 40/104/33 46/94/33 9/97/33 7/105/33
f 29/106/34 35/98/34 36/15/34 30/107/34
f 6/108/35 8/99/35 35/98/35 29/106/35
f 26/109/36 32/110/36 33/111/36 27/112/36
f 27/112/37 33/111/37 34/113/37 28/2/37
f 25/7/38 31/10/38 32/114/38 26/115/38
f 34/113/39 40/104/39 7/105/39 5/116/39
f 23/37/40 29/117/40 30/9/40 24/6/40
f 4/36/41 6/118/41 29/117/41 23/37/41
f 20/119/42 26/115/42 27/120/42 21/121/42
f 21/122/43 27/112/43 28/2/43 22/1/43
f 19/8/44 25/7/44 26/115/44 20/119/44
f 28/2/45 34/113/45 5/116/45 3/3/45
f 17/38/9 23/37/9 24/6/9 18/5/9
f 63/42/46 21/41/46 22/123/46 64/57/46
f 61/25/10 19/44/10 20/40/10 62/39/10
f 59/63/47 17/62/47 18/43/47 60/24/47
f 2/124/48 66/125/48 70/126/48 68/127/48
f 6/128/49 66/129/49 8/130/49
f 66/131/50 12/132/50 10/133/50
f 6/118/51 4/36/51 67/134/51 69/135/51
f 12/132/52 66/131/52 91/136/52 89/137/52
f 68/138/53 70/139/53 74/140/53 72/141/53
f 4/142/54 2/143/54 68/52/54 67/51/54
f 66/129/55 6/128/55 69/144/55 70/139/55
f 71/54/56 72/53/56 76/145/56 75/146/56
f 72/141/57 79/147/57 78/148/57 76/149/57
f 70/139/58 69/144/58 73/150/58 74/140/58
f 69/151/59 67/51/59 71/54/59 73/152/59
f 129/153/60 127/154/60 135/155/60 136/156/60
f 127/154/61 133/157/61 134/158/61 135/155/61
f 87/159/62 86/160/62 83/161/62 82/162/62
f 73/152/63 71/54/63 75/146/63 77/163/63
f 78/164/64 77/165/64 75/166/64 76/167/64
f 85/168/65 84/169/65 81/170/65 80/171/65
f 79/147/66 73/150/66 77/172/66 78/148/66
f 133/173/67 129/174/67 136/175/67 134/176/67
f 84/177/68 87/159/68 82/162/68 81/178/68
f 86/179/69 85/180/69 80/181/69 83/182/69
f 79/183/70 72/184/70 85/180/70 86/179/70
f 74/140/71 73/150/71 87/159/71 84/177/71
f 72/185/72 74/186/72 84/169/72 85/168/72
f 73/150/73 79/147/73 86/160/73 87/159/73
f 176/187/15 175/188/15 98/189/15 100/190/15
f 172/191/20 169/192/20 99/193/20 137/194/20
f 16/195/74 14/196/74 88/197/74 90/198/74
f 93/199/75 102/200/75 97/201/75 96/202/75
f 66/131/76 10/133/76 92/203/76 94/204/76
f 10/205/77 8/206/77 93/207/77 92/208/77
f 94/204/78 92/203/78 102/209/78
f 92/208/79 93/207/79 96/210/79 95/211/79
f 148/212/80 126/213/80 110/214/80 139/215/80
f 163/216/81 125/217/81 111/218/81 152/219/81
f 169/220/82 170/221/82 101/222/82 99/223/82
f 174/224/83 176/225/83 100/226/83 151/227/83
f 105/228/84 103/229/84 106/230/84 108/231/84
f 102/209/85 93/232/85 103/229/85 105/228/85
f 102/209/78 92/203/78 95/233/78 97/234/78
f 94/204/86 102/209/86 105/228/86 104/235/86
f 93/236/87 94/237/87 104/238/87 103/239/87
f 108/240/75 106/241/75 107/242/75
f 104/235/88 105/228/88 108/231/88 107/243/88
f 103/239/89 104/238/89 107/244/89 106/245/89
f 114/246/90 116/247/90 120/248/90 118/249/90
f 110/250/91 112/251/91 116/247/91 114/246/91
f 125/217/92 128/252/92 109/253/92 111/218/92
f 126/213/93 133/157/93 112/254/93 110/214/93
f 111/255/94 109/256/94 113/257/94 115/258/94
f 152/259/95 111/260/95 115/261/95 153/262/95
f 139/263/96 110/250/96 114/246/96 141/264/96
f 161/265/49 154/266/49 119/267/49 117/268/49
f 115/269/97 113/270/97 117/268/97 119/267/97
f 153/271/98 115/269/98 119/267/98 154/266/98
f 141/264/99 114/246/99 118/249/99 143/272/99
f 99/273/100 101/274/100 122/275/100 123/276/100
f 100/277/101 98/278/101 124/279/101 121/280/101
f 151/281/102 100/277/102 121/280/102 162/282/102
f 137/283/103 99/273/103 123/276/103 146/284/103
f 132/285/104 129/153/104 133/157/104 126/213/104
f 131/286/105 130/287/105 128/252/105 125/217/105
f 164/288/106 131/286/106 125/217/106 163/216/106
f 149/289/107 132/285/107 126/213/107 148/212/107
f 146/284/108 123/276/108 132/285/108 149/289/108
f 162/282/109 121/280/109 131/286/109 164/288/109
f 121/280/110 124/279/110 130/287/110 131/286/110
f 123/276/111 122/275/111 129/153/111 132/285/111
f 134/176/112 136/175/112 97/290/112 95/291/112
f 135/292/113 134/293/113 95/294/113 96/295/113
f 136/296/114 135/297/114 96/202/114 97/201/114
f 112/254/115 133/157/115 127/154/115
f 83/161/116 80/298/116 81/178/116 82/162/116
f 122/275/117 145/299/117 150/300/117 129/153/117
f 155/301/118 146/284/118 149/289/118 157/302/118
f 157/302/119 149/289/119 148/212/119 156/303/119
f 129/153/120 150/300/120 147/304/120 127/154/120
f 158/305/121 137/283/121 146/284/121 155/301/121
f 101/274/102 138/306/102 145/299/102 122/275/102
f 160/307/122 141/264/122 143/272/122 161/265/122
f 116/247/123 142/308/123 144/309/123 120/248/123
f 118/249/49 120/248/49 144/309/49 143/272/49
f 159/310/124 139/263/124 141/264/124 160/307/124
f 112/311/125 140/312/125 142/313/125 116/314/125
f 170/315/83 171/316/83 138/317/83 101/318/83
f 127/319/126 147/320/126 140/321/126 112/322/126
f 156/303/127 148/212/127 139/215/127 159/323/127
f 173/324/20 172/191/20 137/194/20 158/325/20
f 16/326/128 66/131/128 2/327/128 65/328/128
f 12/329/129 89/330/129 88/197/129 14/196/129
f 66/131/130 16/326/130 90/331/130 91/136/130
f 175/332/20 173/324/20 158/325/20 98/333/20
f 52/95/131 58/74/131 13/75/131 11/96/131
f 128/252/132 156/303/132 159/323/132 109/253/132
f 109/334/133 159/335/133 160/336/133 113/337/133
f 113/270/134 160/307/134 161/265/134 117/268/134
f 98/278/135 158/305/135 155/301/135 124/279/135
f 130/287/136 157/302/136 156/303/136 128/252/136
f 124/279/137 155/301/137 157/302/137 130/287/137
f 145/299/138 162/282/138 164/288/138 150/300/138
f 150/300/139 164/288/139 163/216/139 147/304/139
f 138/306/102 151/281/102 162/282/102 145/299/102
f 142/308/140 153/271/140 154/266/140 144/309/140
f 143/272/49 144/309/49 154/266/49 161/265/49
f 140/338/141 152/259/141 153/262/141 142/339/141
f 171/316/83 174/224/83 151/227/83 138/317/83
f 147/340/142 163/341/142 152/259/142 140/338/142
f 91/342/83 90/343/83 167/344/83 168/345/83
f 89/346/20 165/347/20 166/348/20 88/349/20
f 89/350/82 91/351/82 168/352/82 165/353/82
f 90/354/15 88/355/15 166/356/15 167/357/15
f 166/348/20 165/347/20 169/192/20 175/332/20
f 167/344/83 176/225/83 170/315/83 168/345/83
f 165/353/82 168/352/82 170/221/82 169/220/82
f 167/357/15 166/356/15 175/188/15 176/187/15
f 170/315/83 176/225/83 174/224/83 171/316/83
f 175/332/20 169/192/20 172/191/20 173/324/20
