# Blender v2.82 (sub 7) OBJ File: ''
# www.blender.org
mtllib wierd.mtl
o Cube_Cube.003
v -1.000000 -1.000000 1.000000
v -0.697330 1.228392 0.468938
v -1.000000 -1.000000 -1.000000
v -0.697330 1.228392 -0.468938
v 1.000000 -1.000000 1.000000
v 0.697330 1.228392 0.468938
v 1.000000 -1.000000 -1.000000
v 0.697330 1.228392 -0.468938
v -1.000000 1.000000 1.000000
v -1.000000 1.000000 -1.000000
v 1.000000 1.000000 -1.000000
v 1.000000 1.000000 1.000000
v -0.697330 2.993002 0.697330
v -0.697330 2.993002 -0.697330
v 0.697330 2.993002 -0.697330
v 0.697330 2.993002 0.697330
v 0.697330 2.493989 -0.468938
v 0.697330 2.493989 0.468938
v -0.697330 2.493989 0.468938
v -0.697330 2.493989 -0.468938
v 0.915792 2.754358 -0.915792
v -0.915792 2.754358 0.915792
v 0.915792 2.754358 0.915792
v -0.915792 2.754358 -0.915792
v 0.915792 2.962029 -0.915792
v -0.915792 2.962029 0.915792
v 0.915792 2.962029 0.915792
v -0.915792 2.962029 -0.915792
v -0.697330 1.000000 0.697330
v -0.697330 1.000000 -0.697330
v 0.697330 1.000000 -0.697330
v 0.697330 1.000000 0.697330
v 0.697330 2.722382 0.697330
v -0.697330 2.722382 -0.697330
v 0.697330 2.722382 -0.697330
v -0.697330 2.722382 0.697330
vt 0.375000 0.000000
vt 0.625000 0.000000
vt 0.625000 0.250000
vt 0.375000 0.250000
vt 0.625000 0.500000
vt 0.375000 0.500000
vt 0.625000 0.750000
vt 0.375000 0.750000
vt 0.625000 1.000000
vt 0.375000 1.000000
vt 0.125000 0.500000
vt 0.125000 0.750000
vt 0.662834 0.712166
vt 0.662834 0.537834
vt 0.662834 0.537834
vt 0.662834 0.712166
vt 0.837166 0.712166
vt 0.837166 0.537834
vt 0.875000 0.500000
vt 0.875000 0.750000
vt 0.662834 0.537834
vt 0.662834 0.712166
vt 0.837166 0.537834
vt 0.837166 0.712166
vt 0.837166 0.537834
vt 0.837166 0.712166
vt 0.837166 0.537834
vt 0.662834 0.537834
vt 0.662834 0.712166
vt 0.837166 0.712166
vt 0.837166 0.566383
vt 0.837166 0.566383
vt 0.662834 0.566383
vt 0.662834 0.566383
vt 0.837166 0.683617
vt 0.662834 0.683617
vt 0.837166 0.537834
vt 0.662834 0.537834
vt 0.662834 0.712166
vt 0.837166 0.712166
vt 0.837166 0.683617
vt 0.662834 0.683617
vn -1.0000 0.0000 0.0000
vn 0.0000 0.0000 -1.0000
vn 1.0000 0.0000 0.0000
vn 0.0000 0.0000 1.0000
vn 0.0000 -1.0000 0.0000
vn 0.1404 0.9901 0.0000
vn 0.0000 1.0000 0.0000
vn -0.1404 0.9901 0.0000
vn 0.0000 0.9901 0.1404
vn 0.0000 0.9901 -0.1404
vn 0.0000 -0.9895 -0.1448
vn 0.0000 -0.9895 0.1448
vn -0.1448 -0.9895 0.0000
vn 0.1448 -0.9895 0.0000
usemtl None
s off
f 1/1/1 9/2/1 10/3/1 3/4/1
f 3/4/2 10/3/2 11/5/2 7/6/2
f 7/6/3 11/5/3 12/7/3 5/8/3
f 5/8/4 12/7/4 9/9/4 1/10/4
f 3/11/5 7/6/5 5/8/5 1/12/5
f 27/13/6 25/14/6 15/15/6 16/16/6
f 29/17/7 30/18/7 10/19/7 9/20/7
f 30/18/7 31/21/7 11/5/7 10/19/7
f 31/21/7 32/22/7 12/7/7 11/5/7
f 32/22/7 29/17/7 9/20/7 12/7/7
f 15/15/7 14/23/7 13/24/7 16/16/7
f 28/25/8 26/26/8 13/24/8 14/23/8
f 26/26/9 27/13/9 16/16/9 13/24/9
f 25/14/10 28/25/10 14/23/10 15/15/10
f 31/21/2 30/18/2 34/27/2 35/28/2
f 29/17/4 32/22/4 33/29/4 36/30/4
f 20/31/4 4/32/4 8/33/4 17/34/4
f 19/35/5 20/31/5 17/34/5 18/36/5
f 35/28/11 34/27/11 24/37/11 21/38/11
f 36/30/12 33/29/12 23/39/12 22/40/12
f 34/27/13 36/30/13 22/40/13 24/37/13
f 33/29/14 35/28/14 21/38/14 23/39/14
f 21/38/2 24/37/2 28/25/2 25/14/2
f 22/40/4 23/39/4 27/13/4 26/26/4
f 24/37/1 22/40/1 26/26/1 28/25/1
f 23/39/3 21/38/3 25/14/3 27/13/3
f 2/41/1 4/32/1 30/18/1 29/17/1
f 8/33/3 6/42/3 32/22/3 31/21/3
f 6/42/3 18/36/3 33/29/3 32/22/3
f 4/32/1 20/31/1 34/27/1 30/18/1
f 17/34/3 8/33/3 31/21/3 35/28/3
f 19/35/1 2/41/1 29/17/1 36/30/1
f 20/31/1 19/35/1 36/30/1 34/27/1
f 18/36/3 17/34/3 35/28/3 33/29/3
f 2/41/7 6/42/7 8/33/7 4/32/7
f 18/36/2 6/42/2 2/41/2 19/35/2